<svg xmlns="http://www.w3.org/2000/svg" width="87" height="29" viewBox="0 0 87 29">
    <g fill="#FFF">
        <path d="M8.178 16.307V6.081c0-.416-.097-.928.416-1.104.608-.208 1.264-.256 1.856.048.368.176.288.592.288.944v8.322c0 1.504 0 1.504 1.52 1.28 1.76-.256 3.329-.944 4.641-2.16 2.785-2.561 2.609-6.338-.432-8.802-3.153-2.577-8.994-2.593-12.098.016C2.88 5.873 2.272 7.489 2.737 9.41c.208.896.72 1.584 1.584 1.984.624.304.96 1.92.512 2.433-.256.288-.576.224-.896.128-1.713-.48-2.833-1.633-3.473-3.265-1.12-2.929-.16-6.145 2.433-8.226 4.032-3.216 12.258-3.52 16.467 1.28 3.024 3.441 2.704 8.594-.769 11.603-2.016 1.744-4.352 2.656-6.977 2.848-.704.048-.896.32-.88.993.032 2.48.016 4.96.016 7.44 0 1.025-.112 1.105-1.28 1.105-1.152 0-1.296-.112-1.296-1.104V16.307zM56.955 20.356c-.096-3.825-3.697-6.465-7.346-5.425-.464.128-.944.72-1.344.32-.32-.32-.064-.976-.112-1.472-.048-.593.096-.96.752-1.2 3.009-1.057 4.48-3.521 4.08-6.674-.24-1.84-1.648-3.184-3.408-3.217-2.4-.048-3.905 1.377-3.985 3.793-.032 1.12-.016 2.24-.016 3.36 0 .433-.128.689-.656.673-2.368-.112-4.609-1.984-5.169-4.337-.304-1.344-.624-1.552-1.968-1.344-.448.064-.672.288-.672.736-.016.672.112 1.328.352 1.952 1.264 3.361 3.777 5.105 7.281 5.521.656.08.864.32.848.945-.032 2.096-.016 4.208-.016 6.305v6.305c0 .336-.08.768.288.944.593.272 1.265.24 1.873.048.544-.176.4-.752.4-1.184.016-2.016-.016-4.049.016-6.065.032-1.28.656-2.24 1.824-2.785 1.136-.528 2.24-.368 3.233.416.864.672 1.184 1.6 1.2 2.673 0 2.016.016 4.049 0 6.065-.016.736.288 1.024.992.992.208-.016.432-.016.64 0 .688.032.945-.304.945-.976-.032-2.112.016-4.24-.032-6.37zM48.153 7.953h.016c0-.528-.032-1.072.016-1.6.048-.672.416-1.088 1.12-1.104.704-.016.976.448 1.104 1.056.256 1.312-.336 2.753-1.392 3.425-.192.128-.416.32-.656.224-.288-.112-.176-.416-.192-.64-.032-.464-.016-.912-.016-1.36z" transform="translate(0 .5)"/>
        <path d="M43.368 23.22c0-1.12.032-2.24 0-3.36-.16-4.017-4.337-6.418-7.777-4.465-.865.48-1.473 1.2-2 2.032-1.297 2.08-2.401 4.273-3.938 6.21-.864 1.088-2 1.744-3.344 2.048-2.145.496-4.177-.416-5.073-2.24-.128-.257-.384-.545-.176-.8.192-.24.496 0 .752.063 2.256.464 4.433.448 6.273-1.168 1.168-1.024 1.777-2.336 1.392-3.937-.384-1.568-1.52-2.416-3.04-2.72-2.657-.528-4.945.24-6.657 2.32-1.777 2.145-2.065 4.593-.96 7.121 1.6 3.681 5.905 5.09 9.761 3.33 1.665-.753 2.929-1.937 3.889-3.458 1.2-1.888 2.32-3.824 3.537-5.697.88-1.376 2.624-1.616 3.824-.592.688.592.96 1.377.96 2.273v6.465c0 .928.129 1.04 1.073 1.056h.32c1.04-.016 1.168-.128 1.168-1.136.016-1.104.016-2.224.016-3.345zm-21.844-4.048c.8-1.393 3.025-2.257 4.529-1.745 1.008.336 1.232 1.088.576 1.905-.672.832-1.632 1.024-2.689 1.088-.72-.048-1.488-.16-2.192-.496-.384-.192-.432-.4-.224-.752zM84.304 18.227c-1.889-1.2-3.825-2.336-5.713-3.536-1.393-.88-2.4-2.097-2.817-3.745-.56-2.24.32-4.369 2.224-5.297.256-.128.577-.384.817-.208.272.208-.016.544-.08.8-.513 2.049-.433 4.033.816 5.825 1.072 1.537 2.752 2.24 4.385 1.793 1.712-.465 2.432-1.809 2.704-3.425.496-2.88-1.2-5.985-3.92-7.201-2.785-1.249-6.226-.48-8.082 1.808-2.24 2.784-2.113 6.961.336 9.874 1.008 1.2 2.304 2.048 3.633 2.848 1.456.88 2.944 1.729 4.368 2.657.929.608 1.329 1.536 1.105 2.64-.224 1.104-.945 1.777-2.033 2.017-.464.096-.944.128-1.424.128-1.968.016-3.953.016-5.921 0-.72-.016-1.04.288-.976 1.008.016.112 0 .208 0 .32 0 1.072.096 1.152 1.12 1.168h3.44c1.169 0 2.353.032 3.521 0 2.625-.08 4.881-2.352 4.897-4.977.032-1.92-.752-3.456-2.4-4.497zM81.535 6.113c.176-.432.432-.384.752-.16 1.2.864 1.825 2.048 1.889 3.329 0 1.232-.385 1.984-.977 2.112-.608.128-1.408-.448-1.808-1.328-.608-1.344-.4-2.657.144-3.953zM71.821 20.388c-.096-3.393-2.48-5.681-5.84-5.665-3.393.016-6.578 2.704-7.298 6.177-.848 4.049 1.84 7.25 5.953 7.105 1.488-.048 2.8-.592 3.985-1.472.464-.336.704-.384.656.304-.048.672.32.896.928.864h.24c1.28.016 1.376-.08 1.376-1.328v-2.88c0-1.025.032-2.065 0-3.105zm-7.57 5.073c-1.871 0-3.12-1.233-3.152-3.089-.048-2.608 2.369-5.073 4.961-5.089 1.793 0 3.153 1.312 3.185 3.105.048 2.56-2.417 5.073-4.993 5.073z" transform="translate(0 .5)"/>
    </g>
</svg>
