<?xml version="1.0" encoding="UTF-8"?>
<svg width="578px" height="448px" viewBox="0 0 578 448" version="1.1" xmlns="http://www.w3.org/2000/svg" xmlns:xlink="http://www.w3.org/1999/xlink">
    <title>chat_resposta_outline</title>
    <g id="Page-1" stroke="none" stroke-width="1" fill="none" fill-rule="evenodd">
        <g id="chat_resposta_outline" fill="#0A115F" fill-rule="nonzero">
            <path d="M533,354.2 C560.5,327.1 577,293.1 577,256 C577,176 500.5,109.9 400.8,98.1 C369.3,40.5 295.3,0 209,0 C94.1,0 1,71.6 1,160 C1,197 17.5,231 45,258.2 C29.7,288.9 7.7,312.7 7.3,313.1 C1,319.8 -0.8,329.6 2.9,338.1 C6.5,346.6 14.9,352.1 24.1,352.1 C77.6,352.1 120.8,331.9 149.3,313.3 C158.5,315.4 168,317 177.7,318.2 C209.1,375.6 282.8,416 369,416 C389.8,416 409.8,413.6 428.8,409.2 C457.3,427.7 500.4,448 554,448 C563.2,448 571.5,442.5 575.2,434 C578.8,425.5 577.1,415.7 570.8,409 C570.4,408.7 548.3,384.9 533,354.2 L533,354.2 Z M140.2,261.9 L123.1,273 C109,282.1 94.6,289.3 80,294.4 C82.7,289.7 85.4,284.7 88,279.6 L103.5,248.5 L78.7,224 C65.2,210.6 49,188.7 49,160 C49,99.3 122.3,48 209,48 C295.7,48 369,99.3 369,160 C369,220.7 295.7,272 209,272 C192.5,272 176,270.1 160,266.4 L140.2,261.9 Z M499.3,320 L474.6,344.4 L490.1,375.5 C492.7,380.6 495.4,385.6 498.1,390.3 C483.5,385.2 469.1,378 455,368.9 L437.9,357.8 L418,362.4 C402,366.1 385.5,368 369,368 C315,368 266.8,347.9 237.7,318.3 C339,307.5 417,240.9 417,160 C417,156.6 416.6,153.3 416.3,150 C480.7,164.5 529,206.8 529,256 C529,284.7 512.8,306.6 499.3,320 Z" id="Shape"></path>
        </g>
    </g>
</svg>