<?xml version="1.0" encoding="UTF-8"?>
<svg width="512px" height="512px" viewBox="0 0 512 512" version="1.1" xmlns="http://www.w3.org/2000/svg" xmlns:xlink="http://www.w3.org/1999/xlink">
    <title>comentario_post_outline</title>
    <g id="Page-1" stroke="none" stroke-width="1" fill="none" fill-rule="evenodd">
        <g id="comentario_post_outline" fill="#0A115F" fill-rule="nonzero">
            <path d="M448,0 L64,0 C28.7,0 0,28.7 0,64 L0,352 C0,387.3 28.7,416 64,416 L160,416 L160,500 C160,507.1 165.8,512 172,512 C174.4,512 176.9,511.3 179.1,509.6 L304,416 L448,416 C483.3,416 512,387.3 512,352 L512,64 C512,28.7 483.3,0 448,0 Z M464,352 C464,360.8 456.8,368 448,368 L288,368 L275.2,377.6 L208,428 L208,368 L64,368 C55.2,368 48,360.8 48,352 L48,64 C48,55.2 55.2,48 64,48 L448,48 C456.8,48 464,55.2 464,64 L464,352 Z" id="Shape"></path>
        </g>
    </g>
</svg>