<svg width="20" height="25" viewBox="0 0 20 25" fill="none" xmlns="http://www.w3.org/2000/svg">
<path d="M10 0C4.47778 0 0 4.19835 0 9.37598C0 12.8451 1.24444 13.939 7.87778 23.8983C8.85556 25.3672 11.1444 25.3672 12.1222 23.8983C18.7556 13.9285 20 12.8451 20 9.37598C20 4.19835 15.5222 0 10 0ZM10 22.6586C3.36667 12.6784 2.5 12.0533 2.5 9.37598C2.5 5.49016 5.85556 2.34399 10 2.34399C14.1444 2.34399 17.5 5.49016 17.5 9.37598C17.5 12.0429 16.7111 12.5742 10 22.6586ZM5.83333 9.37598C5.83333 7.2195 7.7 5.46932 10 5.46932C12.3 5.46932 14.1667 7.2195 14.1667 9.37598C14.1667 11.5325 12.3 13.2826 10 13.2826C7.7 13.2826 5.83333 11.5325 5.83333 9.37598Z" fill="#0A0F5F"/>
</svg>
