<svg width="16" height="17" viewBox="0 0 16 17" fill="none" xmlns="http://www.w3.org/2000/svg">
<path fill-rule="evenodd" clip-rule="evenodd" d="M5.96544 2.86569C6.36072 2.45795 6.86294 2.17839 7.41026 2.06144C7.95758 1.94448 8.5261 1.99524 9.04581 2.20745C9.56553 2.41967 10.0138 2.78408 10.3353 3.25581C10.6568 3.72755 10.8376 4.28601 10.8555 4.86243C11.5659 4.65113 12.3281 4.73234 12.9817 5.08898C13.6353 5.44561 14.1295 6.04987 14.3602 6.77469C14.5885 7.49724 14.5357 8.28407 14.2127 8.96714C13.8898 9.6502 13.3221 10.1769 12.6297 10.436C13.0402 11.066 13.1966 11.8362 13.0658 12.5832C12.935 13.3302 12.5273 13.9952 11.9291 14.4372C11.3298 14.8837 10.5868 15.075 9.85449 14.9711C9.12215 14.8672 8.45672 14.4763 7.99643 13.8794C7.70979 14.2515 7.34069 14.5471 6.92021 14.7412C6.49974 14.9354 6.0402 15.0225 5.5803 14.9951C5.12041 14.9677 4.67362 14.8267 4.27758 14.5839C3.88154 14.3411 3.54784 14.0037 3.30458 13.6001C3.01839 13.1232 2.87145 12.5713 2.88135 12.0105C2.89125 11.4497 3.05757 10.9037 3.3604 10.4379C2.66965 10.1743 2.1047 9.64483 1.78409 8.96067C1.46348 8.27651 1.41212 7.49082 1.6408 6.76844C1.86947 6.04606 2.3604 5.44313 3.01059 5.08616C3.66078 4.72918 4.41969 4.6459 5.1281 4.85379C5.15345 4.10595 5.45268 3.39584 5.96544 2.86665V2.86569ZM10.0432 8.76759C10.0432 9.92915 9.12497 10.8699 7.99178 10.8699C7.44973 10.8712 6.92933 10.6506 6.54474 10.2564C6.16015 9.86232 5.94278 9.32688 5.94032 8.76759C5.94032 7.60602 6.85859 6.66525 7.99178 6.66525C9.12497 6.66525 10.0432 7.60602 10.0432 8.76759Z" fill="white"/>
</svg>
