<svg width="12" height="15" viewBox="0 0 12 15" fill="none" xmlns="http://www.w3.org/2000/svg">
<path d="M6 0C2.68667 0 0 2.51901 0 5.62559C0 7.70705 0.746667 8.36337 4.72667 14.339C5.31333 15.2203 6.68667 15.2203 7.27333 14.339C11.2533 8.35712 12 7.70705 12 5.62559C12 2.51901 9.31333 0 6 0ZM6 13.5952C2.02 7.60704 1.5 7.232 1.5 5.62559C1.5 3.29409 3.51333 1.4064 6 1.4064C8.48667 1.4064 10.5 3.29409 10.5 5.62559C10.5 7.22575 10.0267 7.54453 6 13.5952ZM3.5 5.62559C3.5 4.3317 4.62 3.28159 6 3.28159C7.38 3.28159 8.5 4.3317 8.5 5.62559C8.5 6.91947 7.38 7.96958 6 7.96958C4.62 7.96958 3.5 6.91947 3.5 5.62559Z" fill="white"/>
</svg>
