<svg width="8" height="10" viewBox="0 0 8 10" fill="none" xmlns="http://www.w3.org/2000/svg">
<path d="M4 0C1.79111 0 0 1.67934 0 3.75039C0 5.13803 0.497778 5.57558 3.15111 9.55933C3.54222 10.1469 4.45778 10.1469 4.84889 9.55933C7.50222 5.57141 8 5.13803 8 3.75039C8 1.67934 6.20889 0 4 0ZM4 9.06344C1.34667 5.07136 1 4.82134 1 3.75039C1 2.19606 2.34222 0.937598 4 0.937598C5.65778 0.937598 7 2.19606 7 3.75039C7 4.81717 6.68444 5.02969 4 9.06344ZM2.33333 3.75039C2.33333 2.8878 3.08 2.18773 4 2.18773C4.92 2.18773 5.66667 2.8878 5.66667 3.75039C5.66667 4.61298 4.92 5.31305 4 5.31305C3.08 5.31305 2.33333 4.61298 2.33333 3.75039Z" fill="#0A0F5F"/>
</svg>
