<svg xmlns="http://www.w3.org/2000/svg" width="31" height="39" viewBox="0 0 31 39">
    <g>
        <path d="M26.523 22.796h-.406c-3.475-.097-6.742-.922-9.752-2.66-1.415-.825-2.673-1.834-3.692-3.096-.03-.039-.06-.097-.11-.175-.049.117-.069.165-.079.223-.98 3.495-2.544 6.728-4.544 9.766-.732 1.117-1.544 2.184-2.475 3.146-.445.456-.91.893-1.455 1.223-.208.126-.446.252-.683.32-.555.146-1.1-.116-1.357-.64-.346-.72-.623-1.457-.831-2.224-.436-1.601-.594-3.242-.426-4.892.317-3.243 1.634-6.048 3.92-8.407.05-.058.11-.117.179-.194-.129-.049-.258-.059-.377-.078-.89-.136-1.742-.398-2.504-.874C.98 13.642.317 12.846.089 11.75c-.346-1.68.297-3.475 2.267-4.397.674-.311 1.386-.486 2.12-.563.049-.01.088-.01.177-.02v-.262c-.03-.718.02-1.427.218-2.126.564-2.038 1.91-3.359 3.93-4.01C9.99-.006 11.198-.122 12.436.15c1.485.32 2.643 1.126 3.544 2.3.396.515.703 1.068.96 1.65.03.069.06.137.1.224.138-.03.267-.049.406-.078.95-.165 1.89-.174 2.811.165 1.485.554 2.307 1.64 2.545 3.155.168 1.087-.188 2.039-.842 2.893-.445.583-1.01 1.049-1.633 1.447l-.179.116c-.01.01-.01.03-.03.049.07.029.14.068.209.097 4.187 1.718 7.276 5.232 8.385 9.542.1.398.178.806.248 1.204.02.146.079.223.218.291.94.456 1.534 1.175 1.752 2.184.346 1.573-.604 3.165-2.188 3.631-.178.049-.248.136-.307.301-1.564 4.834-5.683 8.436-10.772 9.416-1.772.34-3.554.35-5.336.04-.366-.069-.515-.282-.445-.632.089-.417.188-.835.287-1.252.079-.32.277-.456.614-.398.762.126 1.524.204 2.296.184 2.782-.068 5.257-.951 7.406-2.679.05-.039.089-.078.168-.155-.119-.01-.188-.02-.257-.02-2.564-.048-4.851-.854-6.861-2.417-.218-.165-.426-.35-.624-.544-.267-.252-.267-.524.02-.786l.95-.844c.248-.224.485-.214.743.01 1.148 1.038 2.495 1.708 4.02 2.057 1.415.32 2.811.262 4.197-.165.159-.048.267-.136.347-.281.554-.961.97-1.98 1.237-3.058.139-.563.505-.893 1.05-.961.089-.01.178-.01.257 0 .436.029.802-.243.881-.65.08-.408-.168-.787-.584-.913-.089-.03-.188-.039-.277-.049-.515-.048-.92-.407-1-.912-.06-.36-.09-.728-.139-1.087-.03-.136-.06-.263-.089-.428zM3.564 28.505c.03.01.05.029.08.038.049-.068.108-.136.158-.194.386-.466.802-.922 1.168-1.407 1.554-2.058 2.812-4.291 3.861-6.64.772-1.738 1.396-3.524 1.733-5.398.04-.223.07-.456.109-.728-2.852 1.136-4.99 2.98-6.356 5.63-1.446 2.787-1.644 5.699-.753 8.699zm9.812-14.999c.02.078.03.126.049.165.188.379.347.767.564 1.126.604.99 1.436 1.787 2.367 2.486 1.395 1.038 2.95 1.766 4.613 2.3 1.356.437 2.743.7 4.158.825.198.02.406.02.654.04-1.119-2.437-2.822-4.282-5.158-5.563-2.248-1.233-4.663-1.68-7.247-1.379zm-2.159-4.688c.772-1.641 2.05-2.787 3.604-3.66-.347-.884-.851-1.64-1.624-2.184-.445-.311-.94-.515-1.485-.593-1.03-.145-2 .03-2.92.505-.733.379-1.228.961-1.515 1.718-.248.66-.297 1.35-.238 2.039.01.078.03.146.04.233 1.544.3 2.94.874 4.138 1.942zm-1.089 2.349c-.089-.117-.168-.233-.247-.33-.307-.37-.683-.67-1.11-.903-1.286-.709-2.672-.99-4.137-.835-.525.058-1.02.194-1.476.476-.99.592-1.04 1.893-.109 2.563.327.233.684.398 1.06.504 1.089.311 2.188.301 3.287.068.752-.165 1.465-.437 2.089-.903.237-.174.455-.378.643-.64zm3.07-.738c.445.282.92.417 1.415.485 1.07.146 2.109 0 3.129-.359.683-.243 1.316-.573 1.86-1.048.258-.224.486-.476.644-.767.486-.913.02-1.951-.99-2.204-.425-.107-.851-.097-1.277-.029-1.277.214-2.366.796-3.326 1.631-.485.427-.901.922-1.188 1.495-.12.252-.218.505-.268.796z"/>
        <path d="M18.5 27c-.837 0-1.509-.672-1.5-1.5 0-.828.68-1.5 1.5-1.5.829 0 1.5.672 1.5 1.509 0 .837-.663 1.491-1.5 1.491z"/>
    </g>
</svg>
