<?xml version="1.0" encoding="UTF-8" standalone="no"?>
<!DOCTYPE svg PUBLIC "-//W3C//DTD SVG 1.1//EN" "http://www.w3.org/Graphics/SVG/1.1/DTD/svg11.dtd">
<svg width="100%" height="100%" viewBox="0 0 1080 1080" version="1.1" xmlns="http://www.w3.org/2000/svg" xmlns:xlink="http://www.w3.org/1999/xlink" xml:space="preserve" xmlns:serif="http://www.serif.com/" style="fill-rule:evenodd;clip-rule:evenodd;stroke-linejoin:round;stroke-miterlimit:2;">
    <g id="Camada-1" serif:id="Camada 1">
        <g transform="matrix(1080,1080,1080,-1080,5.95912e-14,0.222763)">
            <path d="M0.156,0.156C0.094,0.094 0.062,0.063 0.062,0C0.062,-0.053 0.085,-0.083 0.13,-0.13L0.37,-0.37C0.416,-0.415 0.447,-0.437 0.5,-0.437C0.562,-0.437 0.594,-0.406 0.656,-0.344L0.844,-0.156C0.906,-0.094 0.937,-0.062 0.937,0C0.937,0.063 0.906,0.094 0.844,0.156L0.645,0.355C0.59,0.41 0.559,0.438 0.5,0.438C0.437,0.438 0.406,0.406 0.344,0.344L0.156,0.156Z" style="fill:url(#_Linear1);fill-rule:nonzero;"/>
        </g>
        <g transform="matrix(1,0,0,1,222.561,592.421)">
            <path d="M0,-104.801C19.36,-145.577 58.872,-170.584 109.859,-173.115C129.802,-174.095 146.711,-169.207 156.233,-159.717C161.708,-154.501 164.542,-147.092 163.938,-139.551C163.059,-120.344 137.026,-84.476 78.233,-84.476C50.854,-84.503 23.931,-91.498 0,-104.801M634.893,-0.037C615.532,40.74 576.021,65.746 525.034,68.278C505.085,69.257 488.181,64.369 478.66,54.88C473.184,49.663 470.345,42.255 470.949,34.714C471.828,15.501 497.867,-20.361 556.655,-20.361C584.038,-20.34 610.962,-13.345 634.893,-0.037M250.888,92.045C286.252,65.37 332.017,-3.881 376.209,-74.769C381.018,-82.49 386.478,-91.239 387.966,-93.304L388.729,-94.363L388.199,-94.744C402.847,-114.529 416.881,-131.285 427.44,-139.228C455.48,-161.989 490.702,-174.042 526.808,-173.221C585.866,-173.221 636.661,-129.643 646.019,-74.584C617.687,-86.314 587.327,-92.388 556.66,-92.473C461.428,-92.473 401.655,-29.454 398.88,31.446C397.398,59.28 407.894,86.415 427.721,106.004C451.964,130.179 487.785,142.385 528.614,140.378C620.986,135.76 691.806,79.515 713.396,-6.227C717.601,-22.601 719.724,-39.442 719.714,-56.351C719.714,-158.822 631.377,-245.406 526.808,-245.406C475.027,-246.227 424.565,-229.074 384.005,-196.877C348.641,-170.202 302.875,-100.951 258.683,-30.063C253.874,-22.347 248.414,-13.593 246.926,-11.528L247.456,-11.12C232.533,9.12 218.182,26.325 207.436,34.423C179.396,57.183 144.175,69.236 108.069,68.415C49.011,68.415 -1.785,24.837 -11.142,-30.222C17.195,-18.487 47.555,-12.412 78.222,-12.328C173.449,-12.328 233.226,-75.346 236.001,-136.247C237.484,-164.081 226.988,-191.216 207.161,-210.81C182.917,-234.984 147.098,-247.186 106.268,-245.184C13.895,-240.566 -56.923,-184.321 -78.514,-98.573C-82.719,-82.199 -84.843,-65.358 -84.837,-48.449C-84.837,54.017 3.5,140.606 108.069,140.606C159.86,141.416 210.328,124.258 250.888,92.045" style="fill:white;fill-rule:nonzero;"/>
        </g>
    </g>
    <defs>
        <linearGradient id="_Linear1" x1="0" y1="0" x2="1" y2="0" gradientUnits="userSpaceOnUse" gradientTransform="matrix(1,0,0,-1,0,0.000206262)"><stop offset="0" style="stop-color:rgb(222,212,246);stop-opacity:1"/><stop offset="0.5" style="stop-color:rgb(164,122,233);stop-opacity:1"/><stop offset="1" style="stop-color:rgb(73,46,159);stop-opacity:1"/></linearGradient>
    </defs>
</svg>
