<?xml version="1.0" encoding="UTF-8"?>
<!DOCTYPE svg  PUBLIC '-//W3C//DTD SVG 1.1//EN'  'http://www.w3.org/Graphics/SVG/1.1/DTD/svg11.dtd'>
<svg clip-rule="evenodd" fill-rule="evenodd" stroke-linejoin="round" stroke-miterlimit="2" version="1.1" viewBox="0 0 1080 1080" xml:space="preserve" xmlns="http://www.w3.org/2000/svg" xmlns:serif="http://www.serif.com/">
    <g id="Camada-1" serif:id="Camada 1">
        <g transform="matrix(1080 1080 1080 -1080 5.9591e-14 .22276)">
            <path d="m0.156 0.156c-0.062-0.062-0.094-0.093-0.094-0.156 0-0.053 0.023-0.083 0.068-0.13l0.24-0.24c0.046-0.045 0.077-0.067 0.13-0.067 0.062 0 0.094 0.031 0.156 0.093l0.188 0.188c0.062 0.062 0.093 0.094 0.093 0.156 0 0.063-0.031 0.094-0.093 0.156l-0.199 0.199c-0.055 0.055-0.086 0.083-0.145 0.083-0.063 0-0.094-0.032-0.156-0.094l-0.188-0.188z" fill="url(#_Linear1)" fill-rule="nonzero"/>
        </g>
        <g transform="translate(222.56 592.42)">
            <path d="m0-104.8c19.36-40.776 58.872-65.783 109.86-68.314 19.943-0.98 36.852 3.908 46.374 13.398 5.475 5.216 8.309 12.625 7.705 20.166-0.879 19.207-26.912 55.075-85.705 55.075-27.379-0.027-54.302-7.022-78.233-20.325m634.89 104.76c-19.361 40.777-58.872 65.783-109.86 68.315-19.949 0.979-36.853-3.909-46.374-13.398-5.476-5.217-8.315-12.625-7.711-20.166 0.879-19.213 26.918-55.075 85.706-55.075 27.383 0.021 54.307 7.016 78.238 20.324m-384 92.082c35.364-26.675 81.129-95.926 125.32-166.81 4.809-7.721 10.269-16.47 11.757-18.535l0.763-1.059-0.53-0.381c14.648-19.785 28.682-36.541 39.241-44.484 28.04-22.761 63.262-34.814 99.368-33.993 59.058 0 109.85 43.578 119.21 98.637-28.332-11.73-58.692-17.804-89.359-17.889-95.232 0-155 63.019-157.78 123.92-1.482 27.834 9.014 54.969 28.841 74.558 24.243 24.175 60.064 36.381 100.89 34.374 92.372-4.618 163.19-60.863 184.78-146.6 4.205-16.374 6.328-33.215 6.318-50.124 0-102.47-88.337-189.06-192.91-189.06-51.781-0.821-102.24 16.332-142.8 48.529-35.364 26.675-81.13 95.926-125.32 166.81-4.809 7.716-10.269 16.47-11.757 18.535l0.53 0.408c-14.923 20.24-29.274 37.445-40.02 45.543-28.04 22.76-63.261 34.813-99.367 33.992-59.058 0-109.85-43.578-119.21-98.637 28.337 11.735 58.697 17.81 89.364 17.894 95.227 0 155-63.018 157.78-123.92 1.483-27.834-9.013-54.969-28.84-74.563-24.244-24.174-60.063-36.376-100.89-34.374-92.373 4.618-163.19 60.863-184.78 146.61-4.205 16.374-6.329 33.215-6.323 50.124 0 102.47 88.337 189.06 192.91 189.06 51.791 0.81 102.26-16.348 142.82-48.561" fill="#fff" fill-rule="nonzero"/>
        </g>
    </g>
    <defs>
        <linearGradient id="_Linear1" x2="1" gradientTransform="matrix(1 0 0 -1 0 .00020626)" gradientUnits="userSpaceOnUse"><stop stop-color="#ded4f6" offset="0"/><stop stop-color="#a47ae9" offset=".5"/><stop stop-color="#492e9f" offset="1"/></linearGradient>
    </defs>
</svg>
