<svg version="1.2" xmlns="http://www.w3.org/2000/svg" viewBox="0 0 1080 1080" width="1080" height="1080">
	<title>logos-APP-PenhaS-ai</title>
	<defs>
		<clipPath clipPathUnits="userSpaceOnUse" id="cp1">
			<path d="m742.51 0c135 0 202.5 0 270 67.5c67.5 67.5 67.51 135 67.51 270l-0.03 405.01c0 134.99 0 202.49-67.5 269.99c-67.51 67.5-135 67.5-270 67.5h-405c-135 0-202.5 0-270-67.5c-67.5-67.5-67.51-135-67.51-269.99v-405.01c0-135 0-202.5 67.51-270c67.5-67.5 135.01-67.5 270.02-67.5z" />
		</clipPath>
		<clipPath clipPathUnits="userSpaceOnUse" id="cp2">
			<path d="m-13.04-13.41h1106.48v1106.5h-1106.48z" />
		</clipPath>
		<linearGradient id="g1" x1="541.6" y1="-541.4" x2="1621.6" y2="538.6" gradientUnits="userSpaceOnUse">
			<stop offset="0" stop-color="#d6d1e8"/>
			<stop offset=".5" stop-color="#777abf"/>
			<stop offset="1" stop-color="#283c9f"/>
		</linearGradient>
	</defs>
	<style>
		.s0 { fill: url(#g1) } 
		.s1 { fill: #ffffff } 
	</style>
	<g id="Camada 1">
		<g id="&lt;Group&gt;">
			<g id="&lt;Clip Group&gt;" clip-path="url(#cp1)">
				<g id="&lt;Group&gt;">
					<g id="&lt;Clip Group&gt;" clip-path="url(#cp2)">
					</g>
				</g>
				<path id="&lt;Path&gt;" class="s0" d="m1080.2 1080h-1080v-1080h1080z" />
			</g>
			<path id="&lt;Compound Path&gt;" fill-rule="evenodd" class="s1" d="m330.6 733c-104.5 0-192.9-86.6-192.9-189c0-16.9 2.1-33.8 6.3-50.2c21.6-85.7 92.5-141.9 184.8-146.6c40.9-2 76.7 10.2 100.9 34.4c19.8 19.6 30.3 46.7 28.9 74.6c-2.8 60.9-62.6 123.9-157.8 123.9c-30.7-0.1-61-6.2-89.4-17.9c9.4 55.1 60.2 98.6 119.2 98.6c36.1 0.9 71.4-11.2 99.4-34c10.7-8.1 25.1-25.3 40-45.5l-0.5-0.4c1.5-2.1 6.9-10.8 11.7-18.5c44.2-70.9 90-140.2 125.4-166.9c40.5-32.2 91-49.3 142.8-48.5c104.5 0 192.9 86.6 192.9 189.1c0 16.9-2.1 33.7-6.3 50.1c-21.6 85.7-92.5 142-184.8 146.6c-40.9 2-76.7-10.2-100.9-34.4c-19.8-19.6-30.3-46.7-28.9-74.5c2.8-60.9 62.6-124 157.8-124c30.7 0.1 61 6.2 89.4 17.9c-9.4-55-60.2-98.6-119.2-98.6c-36.1-0.8-71.4 11.2-99.4 34c-10.6 7.9-24.6 24.7-39.2 44.5l0.5 0.4l-0.8 1c-1.5 2.1-6.9 10.8-11.7 18.6c-44.2 70.8-90 140.1-125.4 166.8c-40.5 32.2-91 49.3-142.8 48.5zm448.6-160.9c-58.8 0-84.8 35.8-85.7 55c-0.6 7.6 2.2 15 7.7 20.2c9.5 9.5 26.4 14.4 46.4 13.4c51-2.5 90.5-27.5 109.9-68.3c-24-13.3-50.9-20.3-78.3-20.3zm-478.4-64.2c58.8 0 84.8-35.8 85.7-55c0.6-7.6-2.2-15-7.7-20.2c-9.5-9.5-26.4-14.4-46.4-13.4c-51 2.5-90.5 27.5-109.8 68.3c23.9 13.3 50.8 20.3 78.2 20.3z" />
		</g>
	</g>
</svg>