<svg width="1080" height="1080" viewBox="0 0 1080 1080" xmlns="http://www.w3.org/2000/svg">

    <path fill="#ff00ff" stroke="none" transform="matrix(1 0 0 1 222.561 592.421)" d="M 0 -104.801 C 19.36 -145.577 58.872 -170.584 109.859 -173.115 C 129.802 -174.095 146.711 -169.207 156.233 -159.717 C 161.708 -154.501 164.542 -147.092 163.938 -139.551 C 163.059 -120.344 137.026 -84.476 78.233 -84.476 C 50.854 -84.503 23.931 -91.498 0 -104.801 M 634.893 -0.037 C 615.532 40.74 576.021 65.746 525.034 68.278 C 505.085 69.257 488.181 64.369 478.66 54.88 C 473.184 49.663 470.345 42.255 470.949 34.714 C 471.828 15.501 497.867 -20.361 556.655 -20.361 C 584.038 -20.34 610.962 -13.345 634.893 -0.037 M 250.888 92.045 C 286.252 65.37 332.017 -3.881 376.209 -74.769 C 381.018 -82.49 386.478 -91.239 387.966 -93.304 L 388.729 -94.363 L 388.199 -94.744 C 402.847 -114.529 416.881 -131.285 427.44 -139.228 C 455.48 -161.989 490.702 -174.042 526.808 -173.221 C 585.866 -173.221 636.661 -129.643 646.019 -74.584 C 617.687 -86.314 587.327 -92.388 556.66 -92.473 C 461.428 -92.473 401.655 -29.454 398.88 31.446 C 397.398 59.28 407.894 86.415 427.721 106.004 C 451.964 130.179 487.785 142.385 528.614 140.378 C 620.986 135.76 691.806 79.515 713.396 -6.227 C 717.601 -22.601 719.724 -39.442 719.714 -56.351 C 719.714 -158.822 631.377 -245.406 526.808 -245.406 C 475.027 -246.227 424.565 -229.074 384.005 -196.877 C 348.641 -170.202 302.875 -100.951 258.683 -30.063 C 253.874 -22.347 248.414 -13.593 246.926 -11.528 L 247.456 -11.12 C 232.533 9.12 218.182 26.325 207.436 34.423 C 179.396 57.183 144.175 69.236 108.069 68.415 C 49.011 68.415 -1.785 24.837 -11.142 -30.222 C 17.195 -18.487 47.555 -12.412 78.222 -12.328 C 173.449 -12.328 233.226 -75.346 236.001 -136.247 C 237.484 -164.081 226.988 -191.216 207.161 -210.81 C 182.917 -234.984 147.098 -247.186 106.268 -245.184 C 13.895 -240.566 -56.923 -184.321 -78.514 -98.573 C -82.719 -82.199 -84.843 -65.358 -84.837 -48.449 C -84.837 54.017 3.5 140.606 108.069 140.606 C 159.86 141.416 210.328 124.258 250.888 92.045"/>
</svg>
