<?xml version="1.0" encoding="utf-8"?>
<!-- Generator: Adobe Illustrator 26.0.1, SVG Export Plug-In . SVG Version: 6.00 Build 0)  -->
<svg version="1.1" id="Camada_1" xmlns="http://www.w3.org/2000/svg" xmlns:xlink="http://www.w3.org/1999/xlink" x="0px" y="0px"
	 viewBox="0 0 1080 1080" enable-background="new 0 0 1080 1080" xml:space="preserve">
<path fill="#0A0F5F" d="M473.45,684.44c35.36-26.67,81.13-95.93,125.32-166.81c4.81-7.72,10.27-16.47,11.76-18.53l0.76-1.06
	l-0.53-0.38c14.65-19.78,28.68-36.54,39.24-44.48c28.04-22.76,63.26-34.81,99.37-33.99c59.06,0,109.85,43.58,119.21,98.64
	c-28.33-11.73-58.69-17.8-89.36-17.89c-95.23,0-155,63.02-157.78,123.92c-1.48,27.83,9.01,54.97,28.84,74.56
	c24.24,24.17,60.06,36.38,100.89,34.37c92.37-4.62,163.19-60.86,184.78-146.61c4.21-16.37,6.33-33.21,6.32-50.12
	c0-102.47-88.34-189.06-192.91-189.06c-51.78-0.82-102.24,16.33-142.8,48.53c-35.36,26.67-81.13,95.93-125.32,166.81
	c-4.81,7.72-10.27,16.47-11.76,18.53l0.53,0.41c-14.92,20.24-29.27,37.45-40.02,45.54c-28.04,22.76-63.26,34.81-99.37,33.99
	c-59.06,0-109.85-43.58-119.21-98.64c28.34,11.74,58.7,17.81,89.36,17.89c95.23,0,155-63.02,157.78-123.92
	c1.48-27.83-9.01-54.97-28.84-74.56c-24.24-24.17-60.06-36.38-100.89-34.37c-92.37,4.62-163.19,60.86-184.78,146.61
	c-4.21,16.37-6.33,33.21-6.32,50.12c0,102.47,88.34,189.06,192.91,189.06C382.42,733.81,432.89,716.65,473.45,684.44 M857.45,592.35
	c-19.36,40.78-58.87,65.78-109.86,68.31c-19.95,0.98-36.85-3.91-46.37-13.4c-5.48-5.22-8.31-12.62-7.71-20.17
	c0.88-19.21,26.92-55.08,85.71-55.08C806.6,572.05,833.52,579.05,857.45,592.35 M222.56,487.59
	c19.36-40.78,58.87-65.78,109.86-68.31c19.94-0.98,36.85,3.91,46.37,13.4c5.48,5.22,8.31,12.63,7.7,20.17
	c-0.88,19.21-26.91,55.07-85.7,55.07C273.42,507.89,246.49,500.89,222.56,487.59"/>
</svg>