<svg xmlns="http://www.w3.org/2000/svg" xml:space="preserve" fill-rule="evenodd" stroke-linejoin="round" stroke-miterlimit="2" clip-rule="evenodd" viewBox="0 0 1080 1080">
  <g fill-rule="nonzero">
    <linearGradient id="a" x1="0" x2="1" y1="0" y2="0" gradientTransform="matrix(1080 1080 -1080 1080 .223 0)" gradientUnits="userSpaceOnUse">
      <stop offset="0" stop-color="#ded4f6"/>
      <stop offset="0.5" stop-color="#a47ae9"/>
      <stop offset="1" stop-color="#492e9f"/>
    </linearGradient>

    <path fill="url(#a)" d="M337.51 0C202.502 0 134.992 0 67.488 67.499 10.275 124.706 1.553 181.91.223 280.213v519.554c1.33 98.313 10.053 155.523 67.265 212.735C134.986 1080 202.486 1080 337.488 1080h405.003c135.003 0 202.49 0 270-67.498 67.504-67.499 67.504-135.004 67.504-269.996l.005-429.378c-.245-119.007-4.179-182.32-67.488-245.629C945.014 0 877.514 0 742.512 0H337.51Z"/>
    <path fill="#fff" d="M222.561 487.62c19.36-40.776 58.872-65.783 109.859-68.314 19.943-.98 36.852 3.908 46.374 13.398a25.089 25.089 0 0 1 7.705 20.166c-.879 19.207-26.912 55.075-85.705 55.075a161.347 161.347 0 0 1-78.233-20.325m634.893 104.764c-19.361 40.777-58.872 65.783-109.859 68.315-19.949.979-36.853-3.909-46.374-13.398a25.091 25.091 0 0 1-7.711-20.166c.879-19.213 26.918-55.075 85.706-55.075a161.233 161.233 0 0 1 78.238 20.324m-384.005 92.082c35.364-26.675 81.129-95.926 125.321-166.814 4.809-7.721 10.269-16.47 11.757-18.535l.763-1.059-.53-.381c14.648-19.785 28.682-36.541 39.241-44.484a152.186 152.186 0 0 1 99.368-33.993c59.058 0 109.853 43.578 119.211 98.637a235.316 235.316 0 0 0-89.359-17.889c-95.232 0-155.005 63.019-157.78 123.919a97.517 97.517 0 0 0 28.841 74.558c24.243 24.175 60.064 36.381 100.893 34.374 92.372-4.618 163.192-60.863 184.782-146.605a201.035 201.035 0 0 0 6.318-50.124c0-102.471-88.337-189.055-192.906-189.055a223.975 223.975 0 0 0-142.803 48.529c-35.364 26.675-81.13 95.926-125.322 166.814-4.809 7.716-10.269 16.47-11.757 18.535l.53.408c-14.923 20.24-29.274 37.445-40.02 45.543a152.188 152.188 0 0 1-99.367 33.992c-59.058 0-109.854-43.578-119.211-98.637a235.25 235.25 0 0 0 89.364 17.894c95.227 0 155.004-63.018 157.779-123.919a97.53 97.53 0 0 0-28.84-74.563c-24.244-24.174-60.063-36.376-100.893-34.374-92.373 4.618-163.191 60.863-184.782 146.611a201.227 201.227 0 0 0-6.323 50.124c0 102.466 88.337 189.055 192.906 189.055a224 224 0 0 0 142.819-48.561"/>
  </g>
</svg>
