<?xml version="1.0" standalone="no"?>
<!DOCTYPE svg PUBLIC "-//W3C//DTD SVG 20010904//EN"
 "http://www.w3.org/TR/2001/REC-SVG-20010904/DTD/svg10.dtd">
<svg version="1.0" xmlns="http://www.w3.org/2000/svg"
 width="1080.000000pt" height="1080.000000pt" viewBox="0 0 1080.000000 1080.000000"
 preserveAspectRatio="xMidYMid meet">
<metadata>
Created by potrace 1.14, written by Peter Selinger 2001-2017
</metadata>
<g transform="translate(0.000000,1080.000000) scale(0.100000,-0.100000)"
fill="#000000" stroke="none">
<path d="M2748 10575 c-2 -2 -79 -6 -173 -9 -93 -4 -188 -8 -210 -11 -22 -2
-72 -6 -111 -9 -39 -4 -80 -8 -90 -10 -11 -2 -41 -7 -69 -10 -27 -4 -66 -10
-85 -12 -19 -3 -76 -14 -125 -25 -487 -104 -851 -338 -1210 -776 -5 -7 -15
-19 -22 -27 -70 -84 -226 -367 -249 -451 -1 -5 -14 -41 -27 -80 -26 -72 -62
-204 -72 -265 -3 -19 -8 -42 -10 -50 -2 -8 -6 -33 -10 -55 -3 -22 -8 -51 -10
-65 -6 -34 -19 -152 -30 -275 -17 -190 -19 -605 -20 -3030 0 -2361 4 -2894 20
-3050 2 -22 6 -71 9 -110 3 -38 8 -81 11 -95 3 -14 7 -45 9 -70 15 -143 65
-346 131 -530 47 -131 194 -386 285 -494 261 -310 530 -519 820 -639 84 -35
197 -75 233 -82 10 -2 27 -7 37 -10 52 -16 254 -54 375 -69 153 -19 207 -23
450 -34 237 -9 5470 -8 5645 1 218 13 384 28 460 42 14 2 45 7 70 10 144 19
375 84 530 150 326 137 692 453 906 780 72 112 179 322 190 375 0 3 3 12 7 20
20 51 69 224 80 290 3 14 8 43 12 65 4 22 9 49 11 60 2 11 7 40 10 65 3 25 7
56 9 69 10 61 20 193 32 411 10 184 10 5485 0 5680 -4 80 -9 163 -12 185 -3
22 -7 72 -10 110 -3 39 -7 82 -10 98 -3 15 -7 44 -9 65 -6 56 -15 112 -27 162
-5 25 -11 55 -14 68 -24 131 -112 372 -187 511 -184 343 -534 685 -883 865
-138 72 -360 151 -479 172 -17 3 -49 9 -71 14 -22 5 -58 11 -80 14 -23 4 -50
8 -62 10 -12 3 -53 8 -90 11 -37 4 -75 8 -83 10 -8 3 -64 7 -125 10 -60 4
-126 9 -145 12 -34 5 -5526 13 -5532 8z"/>
</g>
</svg>
